<svg xmlns="http://www.w3.org/2000/svg" xmlns:xlink="http://www.w3.org/1999/xlink" viewBox="0 0 719.72 158.17"><defs><style>.cls-1{fill:none;}.cls-2{clip-path:url(#clip-path);}.cls-3{fill:url(#linear-gradient);}.cls-4{fill:#01163f;}</style><clipPath id="clip-path" transform="translate(4.52)"><path class="cls-1" d="M0,71.35H0a8.94,8.94,0,0,1,8.94-8.94H71.66a8.94,8.94,0,0,1,8.94,8.94h0a8.93,8.93,0,0,1-8.94,8.93H8.94A8.93,8.93,0,0,1,0,71.35ZM71.66,130.4h0a8.94,8.94,0,0,0,8.94-8.94h0a8.94,8.94,0,0,0-8.94-8.94h0a8.93,8.93,0,0,0-8.93,8.94h0A8.94,8.94,0,0,0,71.66,130.4ZM19.18,55.22H71.66a8.93,8.93,0,0,0,8.94-8.93h0a8.94,8.94,0,0,0-8.94-8.94H19.18a8.94,8.94,0,0,0-8.94,8.94h0A8.93,8.93,0,0,0,19.18,55.22Zm17,50.12H71.66A8.94,8.94,0,0,0,80.6,96.4h0a8.93,8.93,0,0,0-8.94-8.93H36.23a8.93,8.93,0,0,0-8.94,8.93h0A8.94,8.94,0,0,0,36.23,105.34Z"/></clipPath><linearGradient id="linear-gradient" x1="2748.07" y1="-808.43" x2="2748.22" y2="-835.8" gradientTransform="translate(-8798.59 2959.83) scale(3.22 3.5)" gradientUnits="userSpaceOnUse"><stop offset="0" stop-color="#ff6700"/><stop offset="1" stop-color="#f7d21c"/></linearGradient></defs><g id="Layer_2" data-name="Layer 2"><g id="Layer_1-2" data-name="Layer 1"><g class="cls-2"><rect class="cls-3" x="-4.27" y="36.07" width="87.58" height="95.27" transform="translate(4.08 0.21) rotate(-0.3)"/></g><path class="cls-4" d="M193.6,42.08c0-1.34-.07-3.83-3.62-4.12a47.79,47.79,0,0,0-5.64-.2,50.65,50.65,0,0,0-5.74.4c-2,.27-3.42,1-3.83,3.4l-.77,4.6h-.76a3.74,3.74,0,0,1-.54,0,3,3,0,0,1-.3-.22l-.37-.31c-2.82-2.31-10.32-8.45-27.33-8.16C117.36,38,102,55.15,102.49,84.67c.5,29.11,16.05,45.71,42.7,45.71h1.13c16-.28,23.5-5.86,26.69-8.24l.74-.55c.32-.25.41-.29.43-.29a2.64,2.64,0,0,1,.46,0h.61l.57,32.6c0,2.17.61,3.6,3.37,4a41.7,41.7,0,0,0,5.37.3h1.2a44.85,44.85,0,0,0,6.59-.52c2.71-.5,3.23-1.95,3.19-4.13ZM149.77,114.6h-.88c-17.77,0-26.22-9.64-26.58-30.27-.37-21,8-31,26.38-31.31h.88c17.77,0,26.23,9.68,26.59,30.38C176.52,104.36,168.14,114.28,149.77,114.6Z" transform="translate(4.52)"/><path class="cls-4" d="M287.34,42.11c0-2.17-.61-3.6-3.34-4h0a45.33,45.33,0,0,0-6.57-.3,46,46,0,0,0-6.59.53c-2.71.5-3.23,2-3.19,4.13l.73,42c.36,20.65-6.33,29.19-23.09,29.49-7.7.13-12.77-1.64-16-5.59-3.06-3.74-4.56-9.57-4.71-18.35l-.81-46.76c0-2.18-.61-3.61-3.37-4a46.93,46.93,0,0,0-6.57-.29,46.16,46.16,0,0,0-6.59.53c-2.71.5-3.23,2-3.19,4.12l.89,51.07c.21,12.5,3.76,21.88,10.54,27.9,5.89,5.22,14.15,7.87,24.58,7.87h1.1c7.73-.14,18.58-2,26.39-10.09a2.24,2.24,0,0,1,.25-.23,3,3,0,0,1,.58,0H269l1,5c.5,2.57,1.78,3,3.7,3.26a37.79,37.79,0,0,0,6,.31,31.53,31.53,0,0,0,5.64-.52c2.92-.61,3.4-1.79,3.35-4.22Z" transform="translate(4.52)"/><path class="cls-4" d="M378.73,48.9c-8.16-7.92-20.11-11.8-35.62-11.52s-27.31,4.56-35.19,12.75c-7.71,8-11.49,19.64-11.23,34.52s4.44,26.35,12.43,34.1,19.36,11.54,34.12,11.54h1.49c15.46-.27,27.3-4.58,35.19-12.8,7.72-8,11.5-19.64,11.24-34.48S386.72,56.65,378.73,48.9Zm-34.27,65.76c-18.7.35-27.58-9.32-27.95-30.36-.18-10.12,1.68-17.53,5.68-22.67,4.39-5.65,11.32-8.47,21.2-8.64h.9c18.09,0,26.69,9.67,27,30.37C371.7,104.39,363.16,114.34,344.46,114.66Z" transform="translate(4.52)"/><path class="cls-4" d="M450.69,114.46c-.37-2-1.4-3-3.06-3h-.08a3.42,3.42,0,0,0-1,.16l-.25,0A52.85,52.85,0,0,1,435,113.15c-6.08.11-9-.73-11.44-2.8-2.81-2.4-4.18-6.74-4.3-13.66l-.72-41.19c0-.17,0-.26,0-.26a.84.84,0,0,1,.39-.06l26.51-.47c1.4,0,3.29-.37,3.63-3.06a40.19,40.19,0,0,0,.22-5.2,38.39,38.39,0,0,0-.4-5.19c-.43-2.69-2.35-3-3.73-2.94l-26.52.46a1.46,1.46,0,0,1-.38,0,.85.85,0,0,1,0-.28L417.88,18c0-2.18-.61-3.61-3.37-4a44.06,44.06,0,0,0-6.57-.29,44.62,44.62,0,0,0-6.59.52c-2.71.51-3.23,2-3.19,4.13l1.4,80.52C399.75,110,403.61,121,414.19,126c6.28,3,13.42,3.8,20.29,3.45A62.66,62.66,0,0,0,445,128c2.88-.65,5.93-1,6.3-4.44a21.31,21.31,0,0,0,.07-2.63A39.26,39.26,0,0,0,450.69,114.46Z" transform="translate(4.52)"/><path class="cls-4" d="M469.1,22.46h.25A11.08,11.08,0,0,0,480.58,11,11.21,11.21,0,0,0,469.17,0H469a11.49,11.49,0,0,0-8.11,3.4,11.15,11.15,0,0,0-3.12,8A11,11,0,0,0,469.1,22.46Z" transform="translate(4.52)"/><path class="cls-4" d="M476,38.65h0a44,44,0,0,0-6.57-.29,44.62,44.62,0,0,0-6.59.52c-2.71.5-3.23,1.95-3.2,4.13l1.43,82c0,2.18.61,3.61,3.37,4a43.36,43.36,0,0,0,5.35.3H471a44.52,44.52,0,0,0,6.59-.53c2.71-.5,3.23-1.94,3.19-4.12l-1.42-82C479.33,40.49,478.76,39.06,476,38.65Z" transform="translate(4.52)"/><path class="cls-4" d="M569.76,47.07c-7.47-6.72-17.73-10-30.5-9.79-12,.21-21.15,3.24-27.93,9.21l-.09.07-.51.41h-.29l-.72-41.6c0-2.17-.61-3.6-3.37-4a45.33,45.33,0,0,0-6.57-.3,45.91,45.91,0,0,0-6.59.53c-2.71.5-3.23,1.95-3.19,4.13l2.08,119.55c0,2.44.58,3.69,3.52,4.2a31.41,31.41,0,0,0,5.64.32,37.18,37.18,0,0,0,6-.52c1.89-.37,3.26-.83,3.66-3.37l.77-4.42h.77c.62,0,.63,0,.93.23,7.33,5.9,15.63,8.46,27.55,8.46l1.52,0c12-.21,22.14-4.24,29.17-11.65,7.88-8.32,11.74-20.43,11.47-36C582.81,66.68,578.33,54.77,569.76,47.07ZM537,114.53h0c-9.71.18-16.61-2.37-21.09-7.77-4.11-5-6.2-12.32-6.37-22.5s1.65-17.63,5.58-22.75c4.3-5.59,11.1-8.38,20.8-8.55h.88c17.77,0,26.22,9.67,26.59,30.38C563.74,104.3,555.36,114.21,537,114.53Z" transform="translate(4.52)"/><path class="cls-4" d="M623,115.18c-.43-2.69-2.35-3-3.73-2.94l-6.85.12a.27.27,0,0,1-.42-.31L610.08,4.83c0-2.18-.61-3.61-3.36-4a44.14,44.14,0,0,0-6.58-.29,44.59,44.59,0,0,0-6.58.52c-2.71.5-3.24,2-3.2,4.13L592.24,113c.23,13.1,6,15.81,17.36,15.81H611l8.51-.15c1.4,0,3.3-.37,3.63-3.06a43.69,43.69,0,0,0-.18-10.39Z" transform="translate(4.52)"/><path class="cls-4" d="M715.19,79.69C714.71,52,699.1,37.35,670,37.35l-1.55,0c-30.2.52-45.88,16.86-45.35,47.25.29,16.51,5.48,28.67,15.42,36.15,8.4,6.33,20,9.41,35.43,9.41l2.09,0c15.44-.27,27.06-4,31-6,2.9-1.44,3-2.58,3-5.66a50.39,50.39,0,0,0-.85-8.15,3,3,0,0,0-3.14-2.82,5.84,5.84,0,0,0-1.42.27l-.63.22c-3.67,1.36-14.84,5.48-27.69,5.71-20.52.36-31.1-6.86-32.41-22.07,0-.13,0-.22,0-.28a2.66,2.66,0,0,1,.42,0L711,90.21c1.84,0,3.65-.31,3.93-3.29A60.35,60.35,0,0,0,715.19,79.69Zm-20.13-4.28a1.84,1.84,0,0,1-.47.06h0l-50.68.88a2.1,2.1,0,0,1-.51,0V76c.76-15.47,9.25-23.13,25.94-23.42s25.5,7.48,25.76,22.47A1,1,0,0,1,695.06,75.41Z" transform="translate(4.52)"/></g></g></svg>