<svg width="52" height="38" viewBox="0 0 52 38" fill="none" xmlns="http://www.w3.org/2000/svg">
  <path
    d="M37.5 1H26L19.5 7.5M37.5 1L41 12M37.5 1L32 6M41 12H47M41 12L27.5 23.5M47 12L51 23.5L37.5 34.5M47 12L33.5 23.5M37.5 34.5L33.5 23.5M37.5 34.5H33M33.5 23.5H27.5M5 23.5L0.5 34.5H7M5 23.5H10M5 23.5L12.8571 16M7 34.5L10 31.5L13 34.5M7 34.5L10 37.5L13 34.5M13 34.5H19M29 34.5H19M15 23.5L19 34.5M15 23.5H23M15 23.5H10M19 34.5L23 23.5M23 23.5H27.5M27.5 23.5L25 13M25 13L29 9M25 13H14M32 6L30.5 4.5L27.5 7.5L30.5 10.5L33.5 7.5L32 6ZM17 10L14 13M14 13L12.8571 16M10 23.5L12.8571 16"
    stroke="white" stroke-width="1.5" stroke-linecap="round" stroke-linejoin="round" />
</svg>